<mxfile host="app.diagrams.net" modified="2021-03-30T18:41:30.488Z" agent="5.0 (Windows NT 10.0; Win64; x64) AppleWebKit/537.36 (KHTML, like Gecko) Chrome/89.0.4389.90 Safari/537.36" etag="8sMC8GVPavJj-J8JPDO9" version="14.5.3" type="github">
  <diagram name="Page-1" id="aaaa8250-4180-3840-79b5-4cada1eebb92">
    <mxGraphModel dx="1718" dy="935" grid="1" gridSize="10" guides="1" tooltips="1" connect="1" arrows="1" fold="1" page="1" pageScale="1" pageWidth="850" pageHeight="1100" background="#ffffff" math="0" shadow="0">
      <root>
        <mxCell id="0" />
        <mxCell id="1" parent="0" />
        <mxCell id="GLeiPYQa8IvifipqYecH-14" style="edgeStyle=orthogonalEdgeStyle;rounded=0;orthogonalLoop=1;jettySize=auto;html=1;exitX=0.5;exitY=0;exitDx=0;exitDy=0;exitPerimeter=0;entryX=0.5;entryY=1;entryDx=0;entryDy=0;entryPerimeter=0;endArrow=none;endFill=0;flowAnimation=1;" edge="1" parent="1" source="GLeiPYQa8IvifipqYecH-3" target="GLeiPYQa8IvifipqYecH-8">
          <mxGeometry relative="1" as="geometry" />
        </mxCell>
        <mxCell id="GLeiPYQa8IvifipqYecH-3" value="McMaster&lt;br&gt;Network &lt;br&gt;Ingress" style="aspect=fixed;pointerEvents=1;shadow=0;dashed=0;html=1;strokeColor=none;labelPosition=right;verticalLabelPosition=middle;verticalAlign=middle;align=left;fillColor=#00188D;shape=mxgraph.mscae.enterprise.gateway" vertex="1" parent="1">
          <mxGeometry x="166.5" y="760" width="50" height="50" as="geometry" />
        </mxCell>
        <mxCell id="GLeiPYQa8IvifipqYecH-21" style="edgeStyle=orthogonalEdgeStyle;rounded=0;comic=0;orthogonalLoop=1;jettySize=auto;html=1;startArrow=none;startFill=0;endArrow=none;endFill=0;fontSize=12;" edge="1" parent="1" source="GLeiPYQa8IvifipqYecH-8" target="GLeiPYQa8IvifipqYecH-20">
          <mxGeometry relative="1" as="geometry" />
        </mxCell>
        <mxCell id="GLeiPYQa8IvifipqYecH-8" value="NUC" style="aspect=fixed;pointerEvents=1;shadow=0;dashed=0;html=1;strokeColor=none;labelPosition=center;verticalLabelPosition=middle;verticalAlign=middle;align=center;fillColor=#00188D;shape=mxgraph.azure.computer;fontStyle=1;fontSize=25;" vertex="1" parent="1">
          <mxGeometry x="111.5" y="484" width="160" height="144" as="geometry" />
        </mxCell>
        <mxCell id="GLeiPYQa8IvifipqYecH-13" style="edgeStyle=orthogonalEdgeStyle;rounded=0;orthogonalLoop=1;jettySize=auto;html=1;entryX=0.5;entryY=1;entryDx=0;entryDy=0;entryPerimeter=0;endArrow=none;endFill=0;flowAnimation=1;" edge="1" parent="1" source="GLeiPYQa8IvifipqYecH-12" target="GLeiPYQa8IvifipqYecH-3">
          <mxGeometry relative="1" as="geometry" />
        </mxCell>
        <mxCell id="GLeiPYQa8IvifipqYecH-12" value="RDP" style="shape=image;html=1;verticalAlign=top;verticalLabelPosition=bottom;labelBackgroundColor=#ffffff;imageAspect=0;aspect=fixed;image=https://cdn1.iconfinder.com/data/icons/arrows-elements-outline/128/ic_round_remote_desktop-128.png;fillColor=none;" vertex="1" parent="1">
          <mxGeometry x="142.5" y="950" width="98" height="98" as="geometry" />
        </mxCell>
        <mxCell id="GLeiPYQa8IvifipqYecH-15" value="" style="group" vertex="1" connectable="0" parent="1">
          <mxGeometry x="40" y="40" width="303" height="270" as="geometry" />
        </mxCell>
        <mxCell id="GLeiPYQa8IvifipqYecH-7" value="" style="rounded=1;whiteSpace=wrap;html=1;fillColor=none;" vertex="1" parent="GLeiPYQa8IvifipqYecH-15">
          <mxGeometry width="300" height="270" as="geometry" />
        </mxCell>
        <mxCell id="GLeiPYQa8IvifipqYecH-5" value="" style="group" vertex="1" connectable="0" parent="GLeiPYQa8IvifipqYecH-15">
          <mxGeometry x="175" y="60" width="128" height="198" as="geometry" />
        </mxCell>
        <mxCell id="GLeiPYQa8IvifipqYecH-2" value="Tinker Board&lt;br&gt;192.168.0.15" style="aspect=fixed;pointerEvents=1;shadow=0;dashed=0;html=1;strokeColor=none;labelPosition=center;verticalLabelPosition=bottom;verticalAlign=top;align=center;fillColor=#00188D;shape=mxgraph.mscae.enterprise.server_generic" vertex="1" parent="GLeiPYQa8IvifipqYecH-5">
          <mxGeometry width="72" height="150" as="geometry" />
        </mxCell>
        <mxCell id="GLeiPYQa8IvifipqYecH-4" value="" style="shape=image;html=1;verticalAlign=top;verticalLabelPosition=bottom;labelBackgroundColor=#ffffff;imageAspect=0;aspect=fixed;image=https://cdn4.iconfinder.com/data/icons/logos-and-brands/512/272_Raspberry_Pi_logo-128.png" vertex="1" parent="GLeiPYQa8IvifipqYecH-5">
          <mxGeometry x="6.666666666666667" y="45" width="60" height="60" as="geometry" />
        </mxCell>
        <mxCell id="GLeiPYQa8IvifipqYecH-6" value="MySQL" style="aspect=fixed;pointerEvents=1;shadow=0;dashed=0;html=1;strokeColor=none;labelPosition=center;verticalLabelPosition=bottom;verticalAlign=top;align=center;fillColor=#00188D;shape=mxgraph.mscae.enterprise.database_generic" vertex="1" parent="GLeiPYQa8IvifipqYecH-15">
          <mxGeometry x="52" y="140" width="37" height="50" as="geometry" />
        </mxCell>
        <mxCell id="GLeiPYQa8IvifipqYecH-11" value="" style="group" vertex="1" connectable="0" parent="GLeiPYQa8IvifipqYecH-15">
          <mxGeometry x="45" y="70" width="50" height="43" as="geometry" />
        </mxCell>
        <mxCell id="GLeiPYQa8IvifipqYecH-1" value="Grafana" style="aspect=fixed;pointerEvents=1;shadow=0;dashed=0;html=1;strokeColor=none;labelPosition=center;verticalLabelPosition=bottom;verticalAlign=top;align=center;fillColor=#00188D;shape=mxgraph.mscae.enterprise.application_blank" vertex="1" parent="GLeiPYQa8IvifipqYecH-11">
          <mxGeometry width="50" height="43" as="geometry" />
        </mxCell>
        <mxCell id="GLeiPYQa8IvifipqYecH-10" value="" style="shape=image;html=1;verticalAlign=top;verticalLabelPosition=bottom;labelBackgroundColor=#ffffff;imageAspect=0;aspect=fixed;image=https://cdn4.iconfinder.com/data/icons/creme/128/Location-HTTP.png;fillColor=none;" vertex="1" parent="GLeiPYQa8IvifipqYecH-11">
          <mxGeometry x="20" y="10" width="30" height="30" as="geometry" />
        </mxCell>
        <mxCell id="GLeiPYQa8IvifipqYecH-9" value="" style="shape=image;html=1;verticalAlign=top;verticalLabelPosition=bottom;labelBackgroundColor=#ffffff;imageAspect=0;aspect=fixed;image=https://cdn2.iconfinder.com/data/icons/stilllife/48x48/filesystems/gnome-fs-ssh.png;fillColor=none;" vertex="1" parent="GLeiPYQa8IvifipqYecH-15">
          <mxGeometry x="250" y="210" width="30" height="30" as="geometry" />
        </mxCell>
        <mxCell id="GLeiPYQa8IvifipqYecH-19" value="Click PLC&lt;br style=&quot;font-size: 12px;&quot;&gt;192.168.0.10" style="verticalLabelPosition=bottom;dashed=0;shadow=0;html=1;align=center;verticalAlign=top;shape=mxgraph.cabinets.residual_current_device_4p;fillColor=none;fontSize=12;" vertex="1" parent="1">
          <mxGeometry x="600" y="383.5" width="36" height="50" as="geometry" />
        </mxCell>
        <mxCell id="GLeiPYQa8IvifipqYecH-22" style="edgeStyle=orthogonalEdgeStyle;rounded=0;comic=0;orthogonalLoop=1;jettySize=auto;html=1;startArrow=none;startFill=0;endArrow=none;endFill=0;fontSize=12;" edge="1" parent="1" source="GLeiPYQa8IvifipqYecH-20" target="GLeiPYQa8IvifipqYecH-7">
          <mxGeometry relative="1" as="geometry" />
        </mxCell>
        <mxCell id="GLeiPYQa8IvifipqYecH-24" style="edgeStyle=orthogonalEdgeStyle;rounded=0;comic=0;orthogonalLoop=1;jettySize=auto;html=1;entryX=-0.06;entryY=0.553;entryDx=0;entryDy=0;entryPerimeter=0;startArrow=none;startFill=0;endArrow=none;endFill=0;fontSize=12;" edge="1" parent="1" source="GLeiPYQa8IvifipqYecH-20" target="GLeiPYQa8IvifipqYecH-19">
          <mxGeometry relative="1" as="geometry" />
        </mxCell>
        <mxCell id="GLeiPYQa8IvifipqYecH-20" value="Switch" style="verticalLabelPosition=top;aspect=fixed;html=1;verticalAlign=bottom;strokeColor=none;align=center;outlineConnect=0;shape=mxgraph.citrix.switch;fillColor=none;fontSize=12;labelPosition=center;" vertex="1" parent="1">
          <mxGeometry x="358" y="390" width="92" height="41.5" as="geometry" />
        </mxCell>
        <mxCell id="GLeiPYQa8IvifipqYecH-25" value="192.168.0.20" style="text;html=1;strokeColor=none;fillColor=none;align=center;verticalAlign=middle;whiteSpace=wrap;rounded=0;fontSize=12;" vertex="1" parent="1">
          <mxGeometry x="318" y="540" width="40" height="20" as="geometry" />
        </mxCell>
        <mxCell id="GLeiPYQa8IvifipqYecH-26" value="" style="shape=image;verticalLabelPosition=bottom;labelBackgroundColor=#ffffff;verticalAlign=top;aspect=fixed;imageAspect=0;image=data:image/png,iVBORw0KGgoAAAANSUhEUgAAAPAAAACWCAMAAADXJvXnAAAAw1BMVEUAAACop6eop6eop6efn56op6erqqqnpqaop6eop6empaWSkpGnpqadnZyop6enpqaop6eSkpGSkpGVlZSop6eTk5KSkpGSkpGdnZySkpGSkpGWlpWUlJOSkpGSkpGdnZzGxsadnZycnJugoKDDw8PGxsbGxsbGxsbGxsbGxsbGxsaSkpHGxsbGxsbGxsbGxsaop6eSkpHGxsadnZytrKyko6O8u7vBwcG0tLSwsLCVlZSampmqqam4uLifn56Yl5e+vb13q7GNAAAAMHRSTlMAgL9AEO8gMI/Pce9gRJ9Q37+AIK+fQM+8MFCujnBgERDu3sTD76+fcEUw38+P34Ads5JFAAAG8UlEQVR42u2b6XabMBCFBZjFS7zbafZ031ux4zV5/6eqhJYRpj0np3ZpQ+f7QUCBnFzNzNUoJgRBEARBEARBEARBEARBEARBEARBEARBEARBEARB/iqd5XLZIf8Ny0nIOb8k/weLULH4L6K8CIEJaT+XocmUtJ7PoUm/9Um9DKu03rimoaSe053b6eT6ZkbahRK8ll+v4Dt9aWTtkiwFx3QvJF+r8J5DXV+QFnEbllDGhp+8/viJcJjediqeyQAz9vwsi6Lo3Yf7mzBs6/K8EIJT+hCzk30k6IcVlqQ9zLi2dbyhsQhwSRZWuSbt4Wu2Ll2apuxYRIIiDFua0/dfWDjL2KY03GSRJGmb4CWDMD59EwFN9/uUrvgpRDhO03TTCsGzRWlJ/UXn/i1ozE3BmTTuuA17ikvtwP03kUGyjYANr2oQ/JwX4mUIrLMIKKi+etxt4zLCaVzJaN/SkKcysjj6YY80TKeywm4iIKOFOl1RzZpnwkw+26UKlzyV8pkuO7Eop0OapL47KiKAJjq7qSY2OsshDNtPnmDKGbIzmzLGpGnOjYSWnRXENVfSgTS8UkEZUODJKe1QTo+dUc6cNE2oeEjL7UIE7OhOljA1eHyvCtilwIg8BZ3IDnscJqpBQHAst0cRkNMkL4R9GRRv73UBA0/yHigDnR8OaRptV8KEH0DvY57QVRIlzL1Mkugj4QTUwIUadQTVGdBj4FmB8izPcXoDx3mCezmaIwRrk07pPqWUbotMhDfP6JZdrqjSu6WC/Gu5uiiphmd5gU0Buyc1DHQujC1y4FnecKzvd2AePZUP4OSWuBFu/k2udA3TlMU55bKSXc7qtrTmDFakncrpN1ybLODA8Cx5DnQJZ04N7Kpndd1KXdS8e6yvbHqAc3zf8cBsOo/yIuGa2bHYbRO+BCcysonK6eXNVAbN9sGzBrTGSLkUAJ5Vo+7dcFX/4dYRG35gK9JZxHXLzoyeQ9fyhltcidsZQGxcWsOqD4Nn1bEOvdsRVypN3LnF6R4nuDMBvWmkKIVmpXopeRVFuvfY6EgFQrhW4A4tTiBkWrrW7XJ4DqkeyNPAvP3Qu+Gq0pUNbcbgBH+ZTcw1mK7yUm+iSld3mOmaCl6r0rJ1qfqHsRlWhnvgWTKJSyCwASgzu08fZo3D/P4oZjdXk/OUCwTyFSOLskiZcxbpnE5V03VJZC5CyyjxlJ4xDNf7LGgsVcnbYHamgzn0ANsnR+JFVYrSmDOaqCJOiiwX4mEfcQ6e5cgTyUgmo1d11N4v+ixP5UFl2jrgYC4FYPQoogO4ul1CK4Bg2ZdZ2rMsM3UhNYVwUqLzHiakMj8uVIJgAFejcc34juVNTW9CywVKeVZWVOTHIeO19qyg+luMZWpaehhC1oWWupK7tsqAQIbdNW/yHccqGY5PI/h7ZJJtabZLdnRFMyGzUFGXpLI949iHJtQJ1C8+NIf97oFnDTvidkvdJTNmwOUOXKo8a2AzgooRdMmxfKro5Sb1yCo5Z5JLdnJjDAXMoVIYdEI2QxWcXx2G/gJqsgu3Q2FUGGvzGnnGtA3J0XxhPVaSFFovByQ+VgVvxEIGAQloBQh8HUeZVP32Hq0x//lPGZFj6bzQqzHoha2hXJ5TWrKHLRbD+2nn5Pq/aCw7yrPcWnPsmUOiWK3abJ4moy/60G/RbQbmpRpoARQwJ9aepaoV6PrkUEHQVTlqiSgZ33QHwphdPdDr6FB64/oPP5KZ0rvhYcsjgHk1a0EKtUlOOeuw5DywOcpUe6zlk4U5t3yVOL05L1LXnvc8om8XD7JH7C6fAns4kM0VH7LdsT1nA77NEYU7Yk+MVdkHI3I0ExXdmOldF4d/rQWGkAnnz/iFlwvYFHMD3kTVTyCA9+RCzc31M9ZLplowpfFDGGaG4JTyahWd9ptydqaTyeKZv9wyAcGlBRdQwmEs1qA1W4nf3ZOWoASvYwb7mkSSlI2xGSj7yOI9aQ1cMAARXjG9YUrjNIRPWJohFlz55CxWnJEX7CC+eeLX0TJZv2veXPBmoxxdkOaIJS/vTi0YXBrom286GJ8LN+jLXN/Z6BU73p2dcc3seGcIPm1O33of3r0tK5ix3lPa6Ms7IHjwMo59AgpPKHjWr73B4X388Epa2ab5D/5jyYKcVDBwYXZQtbj/NcE9cmLBwGwh69dQtQiB5lOa9OL41d3pBYPk2+l0ell98RJo3rRKfT1TMJ+Cqzt+fE1qnPp9iOaXJRYCdpyZgmcvY8GI/BluQqDxxoMdr+P4BVwx/Ffl4jwgp6dexbfkX2B2duaTP8i1jm/r//tBu/dnvlRNn/PuF0EQBEEQBEEQBEEQBEEQBEEQBEEQBEEQBEEQBEEQBEEQBHmu/AA6P8XumYcOFgAAAABJRU5ErkJggg==;" vertex="1" parent="1">
          <mxGeometry x="520" y="372.5" width="69.6" height="43.5" as="geometry" />
        </mxCell>
        <mxCell id="GLeiPYQa8IvifipqYecH-27" value="130.113.130.248" style="text;html=1;strokeColor=none;fillColor=none;align=center;verticalAlign=middle;whiteSpace=wrap;rounded=0;fontSize=12;" vertex="1" parent="1">
          <mxGeometry x="170" y="640" width="40" height="20" as="geometry" />
        </mxCell>
      </root>
    </mxGraphModel>
  </diagram>
</mxfile>
